PathFileType	4	(X/Y/Z)	C:\Github\BTS_project\Data\sports2d_results\test4 Exam_2026-03-06_143128_tvc2_Sports2D\test4 Exam_2026-03-06_143128_tvc2_Sports2D_m_person00.trc
DataRate	CameraRate	NumFrames	NumMarkers	Units	OrigDataRate	OrigDataStartFrame	OrigNumFrames
30.0	30.0	8	22	m	30.0	80	321
Frame#	Time	Hip			RHip			RKnee			RAnkle			RBigToe			RSmallToe			RHeel			LHip			LKnee			LAnkle			LBigToe			LSmallToe			LHeel			Neck			Head			Nose			RShoulder			RElbow			RWrist			LShoulder			LElbow			LWrist			
		X1	Y1	Z1	X2	Y2	Z2	X3	Y3	Z3	X4	Y4	Z4	X5	Y5	Z5	X6	Y6	Z6	X7	Y7	Z7	X8	Y8	Z8	X9	Y9	Z9	X10	Y10	Z10	X11	Y11	Z11	X12	Y12	Z12	X13	Y13	Z13	X14	Y14	Z14	X15	Y15	Z15	X16	Y16	Z16	X17	Y17	Z17	X18	Y18	Z18	X19	Y19	Z19	X20	Y20	Z20	X21	Y21	Z21	X22	Y22	Z22
80	2.675	2.1883395109544224	0.534018434270157	0.0301	2.118506613232403	0.5969020461162936	0.0301	1.8585676455662852	0.35273773781848977	0.129	1.6666600943288663	0.12089708336898353	0.023	1.6173663775063194	0.059099908853131246	0.2179	1.5878413080264555	0.101924781657505	0.1804	1.6641293729412328	0.0831007383048184	-0.0119	2.250627654705902	0.45958379426827956	0.0301	2.0235926457558318	0.2355817955879974	0.129	1.886594126242658	0.18011439700947804	0.023	1.8142911586342545	0.07020188798357961	0.2179	1.8597389093770846	0.06367215918960653	0.1804	1.8546006748085448	0.17739912052205034	-0.0119	2.5588327993699083	0.9060417737302682	0.0008	2.7183709040545274	1.0716512450069977	0.0655	2.627951748949869	0.9903642937883721	0.1076	2.371099596305461	0.9574546202401784	-0.01275	2.151268846537837	0.9045574288973929	0.0702	1.9411380494644637	0.8508981933632477	0.1076	2.6182360762726247	0.7185934626174205	-0.01275	2.518452022959287	0.5065635804731724	0.0702	2.405066019561092	0.3280667766203503	0.1076
81	2.7084374999999996	2.189024013614222	0.5342030649696693	0.0301	2.117728145741339	0.5980193428720685	0.0301	1.8590368181409587	0.3537180658229191	0.129	1.6672342859018663	0.12078610189790001	0.023	1.6175367672677405	0.058931398458882414	0.2179	1.587680159855025	0.102258570853622	0.1804	1.6642765169787352	0.08278097937623112	-0.0119	2.2509321225682184	0.45939820104550944	0.0301	2.02390054756804	0.23719392029126332	0.129	1.885949925195852	0.180754714168244	0.023	1.8156263300308901	0.06920106912952657	0.2179	1.8605579087231265	0.0643778243947943	0.1804	1.8560197000836238	0.17910869229475404	-0.0119	2.558958477129557	0.9056038493366192	0.0008	2.7183594564850964	1.070833382719442	0.0655	2.628566597273467	0.9906228091328821	0.1076	2.3735023092889413	0.9589509131426217	-0.01275	2.1527255921509068	0.9059990039585218	0.0702	1.943669252921706	0.854449371608994	0.1076	2.618173010021123	0.7184198127606682	-0.01275	2.518277735853184	0.5061910014880892	0.0702	2.4041760613558547	0.33051704584079933	0.1076
82	2.7418749999999994	2.189285400429748	0.5337571570979817	0.0301	2.1170225132314324	0.5984678057465757	0.0301	1.8590935445583339	0.35418633829908963	0.129	1.668058487389522	0.12101543425770586	0.023	1.616397521500264	0.05906741322371656	0.2179	1.5875822776716797	0.10190633093200117	0.1804	1.6643204173275692	0.08218965623559715	-0.0119	2.251282167321085	0.4590361883863727	0.0301	2.024934567317708	0.23910786069308892	0.129	1.8845686189890758	0.18039205889531693	0.023	1.8155884152390205	0.06762413553681929	0.2179	1.8609617671191518	0.06543729844566855	0.1804	1.8568302454213061	0.1802047835281752	-0.0119	2.5582456802709417	0.9038103748113606	0.0008	2.7174162619096456	1.0700966018126403	0.0655	2.6286081573916045	0.9901906094529992	0.1076	2.375676190037271	0.9596212932423748	-0.01275	2.1540074857625426	0.9076351974096561	0.0702	1.9452538961610097	0.8582774085469045	0.1076	2.6184244410001796	0.7175908664499255	-0.01275	2.517920904188008	0.5051047781149213	0.0702	2.4035492532181593	0.3331733697684919	0.1076
83	2.7753124999999996	2.189239441528022	0.5336450763510854	0.0301	2.116879919650375	0.5984679399902142	0.0301	1.858983408244496	0.35466390203717735	0.129	1.6694088885279037	0.12153408693939557	0.023	1.614305485800938	0.05928814011529722	0.2179	1.587403774657946	0.10134980668710185	0.1804	1.6653071063680849	0.08129352841605669	-0.0119	2.251505251764599	0.4590656795391066	0.0301	2.024148739008314	0.24026861064158236	0.129	1.8844355901267555	0.18035886200393125	0.023	1.8153316477916357	0.06745051259598944	0.2179	1.862810923251626	0.0671918329764225	0.1804	1.8578537535712667	0.18154069955762245	-0.0119	2.556348237791277	0.9013930636329319	0.0008	2.7169956692513244	1.0694676452856435	0.0655	2.62764288426581	0.9890934858276659	0.1076	2.376698274748004	0.9593748335941071	-0.01275	2.154868845766669	0.9093364011394317	0.0702	1.946019100194968	0.8623298812117174	0.1076	2.6193369031360336	0.7162322500132132	-0.01275	2.5170967233991366	0.5042387036639532	0.0702	2.4029032019071814	0.33529537788247027	0.1076
84	2.8087499999999994	2.1891810979974893	0.5344928728324568	0.0301	2.1169349868767586	0.5992327688084435	0.0301	1.8590400708354615	0.3553433645320968	0.129	1.6710199092123779	0.12223488519530643	0.023	1.6128949151362861	0.058941584365938625	0.2179	1.5870774470028524	0.10140591624696764	0.1804	1.6677276980937756	0.08075208018384578	-0.0119	2.2516627230039665	0.45987994752947686	0.0301	2.0211131378015397	0.24073865449040954	0.129	1.8850906072777462	0.18057954088795153	0.023	1.8152066181769355	0.06809651843032585	0.2179	1.8644389968006396	0.06905760486627051	0.1804	1.8593569684238198	0.18313741516583962	-0.0119	2.5548105024260463	0.8996630270720257	0.0008	2.7174705180009093	1.069310978138453	0.0655	2.6259832069073443	0.9875150402477846	0.1076	2.377780477049356	0.9590069267451898	-0.01275	2.1552173872704103	0.9104920401246793	0.0702	1.94511687918269	0.8657714773621479	0.1076	2.6204143354547726	0.715256891053829	-0.01275	2.5161183923938215	0.5037037122782932	0.0702	2.4013059749599317	0.33576508323350696	0.1076
85	2.8421874999999996	2.189373663208272	0.5352109313018778	0.0301	2.1168600950533967	0.6002962394550906	0.0301	1.8590724021872438	0.35560521281922786	0.129	1.6722883763356609	0.12300273131279277	0.023	1.613086253524304	0.05790334359924334	0.2179	1.5866738357360495	0.10191560304601627	0.1804	1.6701661164739288	0.0808545988880099	-0.0119	2.2518904558731996	0.46055502479118404	0.0301	2.0181813988298423	0.2410797210970614	0.129	1.8850999867584846	0.18037461030595273	0.023	1.8150429736704727	0.06852542881035291	0.2179	1.86347344764833	0.06913008998651127	0.1804	1.8602731159084536	0.18400553532830735	-0.0119	2.5549292793854645	0.8991164156852851	0.0008	2.718242086298413	1.0696516421857891	0.0655	2.6240626335892796	0.9852708869377379	0.1076	2.378998335607794	0.9588570368473015	-0.01275	2.1558756747128762	0.9113963529127598	0.0702	1.9428149625772995	0.8683373751177689	0.1076	2.6210883807329894	0.7148422463043538	-0.01275	2.5154927073105813	0.5036863363051746	0.0702	2.3985789143429828	0.33495447372892256	0.1076
86	2.8756249999999994	2.1896612776355187	0.534804665763074	0.0301	2.117106813313925	0.5998902015052008	0.0301	1.859145168269379	0.3551052610480736	0.129	1.6725518247287674	0.12330496846820733	0.023	1.6135137014961218	0.056703355519810754	0.2179	1.5866678925019113	0.10186921999438937	0.1804	1.6707554624359893	0.08075835067442624	-0.0119	2.251920350138591	0.4604167033501134	0.0301	2.0170072709517117	0.2417008389234168	0.129	1.8840148779954564	0.17978164054605034	0.023	1.8146937341955558	0.06871871690599837	0.2179	1.860865744827157	0.06653386038492025	0.1804	1.8595514134689008	0.18383865220092588	-0.0119	2.5549884730152623	0.8985266006724335	0.0008	2.7187264747262816	1.0699738349752104	0.0655	2.621694481489259	0.9824044368763102	0.1076	2.379035794175037	0.9590377461143742	-0.01275	2.15721901724805	0.9126934249667715	0.0702	1.9411766630544218	0.8707688058289098	0.1076	2.6214311003698927	0.714228841657235	-0.01275	2.5149224434942474	0.5044417365924242	0.0702	2.3958765844048893	0.3349551235180691	0.1076
87	2.9090624999999997	2.1895717510277097	0.5342913953766599	0.0301	2.117667859230186	0.5983866597059205	0.0301	1.8597232798361694	0.354307516456581	0.129	1.6717138892078138	0.12280545217651918	0.023	1.6126899070392684	0.05621189419992941	0.2179	1.5873342605085952	0.10137250749542935	0.1804	1.669260388542217	0.0801517783749939	-0.0119	2.251343986568891	0.4604407640648573	0.0301	2.0172227540858896	0.24275787577101335	0.129	1.8829330974639282	0.17960789839791153	0.023	1.8142845883986585	0.06937136329646557	0.2179	1.8590984037536522	0.06370128705454493	0.1804	1.8579058180625292	0.18342257917979796	-0.0119	2.5531608392798097	0.8968298554083659	0.0008	2.718613884831184	1.0698097145595902	0.0655	2.618411934112742	0.979234005083844	0.1076	2.377777104096563	0.9599368314136602	-0.01275	2.1582609542043074	0.9140370863325519	0.0702	1.9411056870519043	0.8730620749987553	0.1076	2.621158264343977	0.7131091985726028	-0.01275	2.51349208169691	0.5053724863376509	0.0702	2.3936469128751097	0.3368160199116119	0.1076
